<?xml version="1.0" standalone="no"?>
<!DOCTYPE svg PUBLIC "-//W3C//DTD SVG 20010904//EN"
 "http://www.w3.org/TR/2001/REC-SVG-20010904/DTD/svg10.dtd">
<svg version="1.0" xmlns="http://www.w3.org/2000/svg"
 width="1400.000000pt" height="274.000000pt" viewBox="0 0 1400.000000 274.000000"
 preserveAspectRatio="xMidYMid meet">
<metadata>
Created by potrace 1.16, written by Peter Selinger 2001-2019
</metadata>
<g transform="translate(0.000000,274.000000) scale(0.100000,-0.100000)"
fill="#000000" stroke="none">
<path d="M0 1370 l0 -1370 7000 0 7000 0 0 1370 0 1370 -7000 0 -7000 0 0
-1370z m1410 1330 c0 -19 -7 -20 -240 -20 -233 0 -240 1 -240 20 0 19 7 20
240 20 233 0 240 -1 240 -20z m175 -970 c25 -26 26 -91 2 -117 -16 -18 -17
-61 -17 -536 l0 -517 -50 0 -50 0 0 519 c0 356 -3 522 -11 526 -5 4 -15 19
-20 33 -33 87 79 158 146 92z m1376 15 c49 -26 62 -103 23 -136 -12 -10 -14
-92 -14 -530 l0 -519 -50 0 -50 0 0 519 c0 356 -3 522 -11 526 -18 12 -30 57
-23 87 3 18 18 37 37 49 39 23 49 23 88 4z m9920 0 c49 -26 62 -103 23 -136
-12 -10 -14 -92 -14 -530 l0 -519 -50 0 -50 0 0 519 c0 356 -3 522 -11 526
-18 12 -30 57 -23 87 3 18 18 37 37 49 39 23 49 23 88 4z m-5297 -199 c42 -17
60 -61 44 -107 -9 -26 -7 -33 13 -55 18 -20 20 -24 6 -24 -13 0 -15 -6 -10
-30 5 -26 3 -30 -16 -30 -11 0 -21 3 -21 8 0 4 -4 13 -9 21 -8 12 -12 12 -25
2 -14 -12 -16 -5 -16 65 0 61 3 75 12 66 20 -20 30 -14 26 16 -3 24 -7 27 -38
27 -31 0 -35 -3 -38 -30 -2 -18 2 -33 12 -40 10 -8 16 -32 18 -71 3 -52 5 -59
22 -56 10 2 23 -2 27 -10 5 -7 9 -176 9 -375 l0 -363 -50 0 -50 0 0 412 c0
392 -1 414 -20 453 -26 54 -13 100 34 121 38 16 31 16 70 0z m-6485 -101 c16
-8 34 -28 41 -46 12 -28 11 -36 -8 -73 -21 -40 -22 -50 -22 -403 l0 -363 -50
0 -50 0 0 369 c0 250 -3 372 -11 376 -18 12 -30 57 -23 87 3 18 18 37 37 49
38 23 49 23 86 4z m4035 4 c14 -7 32 -27 41 -46 16 -32 15 -36 -4 -74 -20 -38
-21 -55 -21 -404 l0 -365 -50 0 -50 0 0 362 c0 345 -1 364 -21 404 -19 41 -20
45 -4 78 10 20 28 39 43 45 36 13 37 13 66 0z m1990 -3 c49 -20 63 -66 36
-121 -19 -39 -20 -61 -20 -403 l0 -362 -50 0 -50 0 0 365 c0 351 -1 366 -21
405 -19 36 -20 44 -8 71 7 18 25 37 43 45 38 16 31 16 70 0z m5297 -1 c49 -26
62 -103 23 -136 -12 -9 -14 -72 -14 -380 l0 -369 -50 0 -50 0 0 363 c0 353 -1
363 -22 403 -19 37 -20 45 -8 73 12 30 50 60 78 61 7 0 26 -7 43 -15z m1256
-4 c43 -27 52 -70 24 -117 -20 -34 -21 -48 -21 -400 l0 -364 -50 0 -50 0 0
363 c0 353 -1 363 -22 403 -19 37 -20 45 -8 73 13 31 51 60 80 61 8 0 29 -9
47 -19z m-11658 -96 c49 -25 64 -104 25 -136 -11 -9 -14 -69 -14 -330 l0 -319
-50 0 -50 0 0 319 c0 265 -2 321 -14 330 -39 32 -25 113 24 138 32 16 45 16
79 -2z m-682 -104 c43 -27 52 -70 24 -117 -20 -33 -21 -50 -21 -300 l0 -264
-50 0 -50 0 0 269 c0 180 -4 272 -11 276 -18 12 -30 57 -23 87 6 30 54 68 84
68 8 0 29 -9 47 -19z m1414 -7 c30 -27 33 -70 10 -110 -20 -33 -21 -50 -21
-300 l0 -264 -50 0 -50 0 0 269 c0 221 -3 271 -14 280 -22 19 -29 67 -14 98
25 52 96 66 139 27z m3053 12 c41 -17 60 -62 45 -106 -6 -16 -15 -30 -20 -30
-5 0 -9 -118 -9 -275 l0 -275 -50 0 -50 0 0 275 c0 157 -4 275 -9 275 -5 0
-14 14 -20 31 -18 52 13 100 77 118 1 1 18 -5 36 -13z m1570 -15 c34 -29 38
-60 16 -105 -19 -39 -20 -62 -20 -304 l0 -262 -50 0 -50 0 0 263 c0 243 -2
266 -20 302 -21 41 -19 67 9 99 33 38 76 41 115 7z m1030 15 c41 -17 60 -62
45 -106 -6 -16 -15 -30 -20 -30 -5 0 -9 -118 -9 -275 l0 -275 -50 0 -50 0 0
275 c0 157 -4 275 -9 275 -5 0 -14 14 -20 30 -15 43 4 89 43 106 38 16 31 16
70 0z m4267 -12 c30 -27 33 -70 10 -110 -20 -33 -21 -50 -21 -300 l0 -264 -50
0 -50 0 0 269 c0 221 -3 271 -14 280 -22 19 -29 67 -14 98 25 52 96 66 139 27z
m-724 -93 c43 -27 52 -70 24 -117 -20 -33 -21 -50 -21 -250 l0 -214 -50 0 -50
0 0 213 c0 199 -1 215 -22 253 -19 37 -20 45 -8 73 13 31 51 60 80 61 8 0 29
-9 47 -19z m1312 4 c16 -8 34 -28 41 -46 12 -28 11 -36 -8 -73 -21 -38 -22
-54 -22 -253 l0 -213 -50 0 -50 0 0 214 c0 200 -1 217 -21 250 -28 47 -19 90
24 117 38 23 49 23 86 4z m-4620 -100 c16 -8 34 -28 40 -46 9 -27 8 -39 -9
-71 -18 -34 -20 -58 -20 -203 l0 -165 -50 0 -50 0 0 165 c0 145 -2 169 -20
203 -17 32 -18 44 -9 70 11 31 48 61 77 62 7 0 26 -7 41 -15z m-6850 -100 c49
-25 64 -104 25 -136 -11 -9 -14 -41 -14 -130 l0 -119 -50 0 -50 0 0 119 c0 89
-3 121 -14 130 -38 32 -25 110 23 136 33 18 46 18 80 0z m1590 0 c49 -25 64
-104 25 -136 -11 -9 -14 -41 -14 -130 l0 -119 -50 0 -50 0 0 119 c0 89 -3 121
-14 130 -38 32 -25 110 23 136 33 18 46 18 80 0z m1526 -1 c49 -23 61 -65 35
-119 -16 -34 -20 -62 -20 -153 l0 -112 -50 0 -50 0 0 112 c0 91 -4 119 -20
153 -26 53 -14 96 33 119 39 19 33 19 72 0z m1129 -58 c49 -20 63 -66 36 -121
-15 -31 -20 -62 -20 -123 l0 -82 -50 0 -50 0 0 82 c0 61 -5 92 -20 123 -26 54
-13 100 34 121 38 16 31 16 70 0z m-1360 -100 c41 -17 60 -62 45 -106 -6 -16
-15 -30 -20 -30 -5 0 -9 -20 -9 -45 l0 -45 -50 0 -50 0 0 45 c0 25 -4 45 -9
45 -15 0 -30 57 -22 87 4 18 19 34 42 45 41 21 33 21 73 4z"/>
</g>
</svg>
